<svg enable-background="new 0 0 150 150" viewBox="0 0 150 150" xmlns="http://www.w3.org/2000/svg"><g fill="none" stroke="#000" stroke-linecap="round" stroke-miterlimit="10" stroke-width="5.6693"><path d="m93.008 52.836 12.462-12.462c4.722-4.722 12.774-2.685 14.684 3.713l15.518 51.997c1.36 4.557-2.973 8.759-7.486 7.259l-50.763-16.866c-6.224-2.068-8.092-9.965-3.454-14.602l12.5-12.5"/><path d="m71.261 51.779-16.892-11.572c-7.18-4.919-8.128-15.151-1.974-21.305 6.235-6.235 16.624-5.167 21.461 2.206l11.029 16.814c.754 1.15.61 2.668-.346 3.656l-9.506 9.82c-.996 1.03-2.59 1.191-3.772.381z"/><path d="m83.274 43.102 18.773 18.773c1.806 1.806 1.806 4.733 0 6.539-1.806 1.806-4.733 1.806-6.539 0l-18.773-18.773"/><path d="m14.075 71.579h59.893"/><path d="m125.988 102.614h-111.913"/><path d="m14.075 135.171h121.85"/><path d="m135.925 96.085v39.086"/></g></svg>